# xmcd CD database file
#
# Track frame offsets:
#	150
#	22925
#	49347
#	80985
#	103510
#	124572
#	154797
#	185255
#	222485
#
# Disc length: 3525 seconds
#
# Revision: 0
# Processed by: cddbd v1.4PL0 Copyright (c) Steve Scherf et al.
# Submitted via: CDex 1.50beta9
#
DISCID=750dc309
DTITLE=Bill Evans - Bill Evans Trio - Consecration - The Last Complete Collection - 4
DYEAR=1980
DGENRE=Jazz
TTITLE0=Re - Person I Knew
TTITLE1=Tiffany
TTITLE2=Polka Dots and Moonbeams
TTITLE3=Theme from M.A.S.H.
TTITLE4=Your Story
TTITLE5=Like Someone in Love
TTITLE6=Knit for Mary
TTITLE7=The Two Lonely People
TTITLE8=My Romance
EXTD=YEAR: 1980
EXTT0=
EXTT1=
EXTT2=
EXTT3=
EXTT4=
EXTT5=
EXTT6=
EXTT7=
EXTT8=
PLAYORDER=
